<svg id="Ebene_1" data-name="Ebene 1" xmlns="http://www.w3.org/2000/svg" viewBox="0 0 371.44 94.18"><defs><style>.cls-1,.cls-4{fill:#213a8f;}.cls-2{fill:#dd0b2f;}.cls-3{fill:#363932;}.cls-4{fill-rule:evenodd;}</style></defs><title>313-Logo_winweb_9_2018_CMYK</title><path class="cls-1" d="M153.27,47.55q-3,9.66-6.12,17.86t-6.2,16h-7q-3.81-11-6.73-23.25T121.8,31.5h7.35q1,5.61,2.08,11.23t2.24,10.91c.76,3.52,1.53,6.9,2.3,10.11s1.56,6.19,2.38,8.93q2.88-7.56,6.12-16.6t6-18.68h6.05q2.8,9.65,6.12,18.68t6.19,16.6q1.16-4,2.31-8.85t2.27-10.12q1.11-5.3,2.19-10.94t2.09-11.27h7.13q-2.59,14.4-5.51,26.64t-6.66,23.25h-7q-3.18-7.77-6.2-16T153.27,47.55Z" transform="translate(-28.5 -25.52)"/><path class="cls-1" d="M194.83,37.19A4.31,4.31,0,0,1,191.77,36a4.2,4.2,0,0,1-1.26-3.21,4.19,4.19,0,0,1,1.26-3.2,4.53,4.53,0,0,1,6.12,0,4.19,4.19,0,0,1,1.26,3.2A4.2,4.2,0,0,1,197.89,36,4.31,4.31,0,0,1,194.83,37.19Zm3.38,44.2h-6.69V44h6.69Z" transform="translate(-28.5 -25.52)"/><path class="cls-1" d="M208.09,45q2.31-.57,6.12-1.22a53.21,53.21,0,0,1,8.79-.65,19,19,0,0,1,7.41,1.26A11.65,11.65,0,0,1,235.13,48a13.68,13.68,0,0,1,2.48,5.44,31.51,31.51,0,0,1,.72,7v21h-6.69V61.81a32,32,0,0,0-.47-5.9,10,10,0,0,0-1.55-4,6.19,6.19,0,0,0-2.88-2.19,12.55,12.55,0,0,0-4.46-.69c-.72,0-1.47,0-2.24.08s-1.5.11-2.19.18-1.32.15-1.87.25l-1.19.22v31.6h-6.7Z" transform="translate(-28.5 -25.52)"/><path class="cls-2" d="M271.5,44.17q.64,3.6,1.68,7.66c.7,2.72,1.46,5.48,2.3,8.28s1.72,5.58,2.66,8.32S280,73.74,281,76.14c.82-1.83,1.69-4,2.6-6.66s1.83-5.37,2.75-8.27,1.77-5.83,2.56-8.78,1.46-5.71,2-8.26h4.61q-2.6,11-5.67,20t-6.76,17.19h-4.34q-1.1-2.53-2.29-5.67c-.8-2.08-1.62-4.32-2.46-6.69s-1.67-4.87-2.46-7.48-1.55-5.29-2.26-8c-.72,2.74-1.48,5.42-2.26,8s-1.61,5.12-2.45,7.49-1.66,4.61-2.45,6.7-1.55,4-2.27,5.63h-4.5a183.28,183.28,0,0,1-6.75-17.2q-3.06-9.07-5.64-20h5q.79,3.81,2,8.24t2.57,8.78q1.38,4.35,2.78,8.25t2.64,6.62c.92-2.38,1.84-5,2.76-7.69s1.79-5.5,2.61-8.29,1.57-5.53,2.29-8.25,1.35-5.26,1.92-7.66Z" transform="translate(-28.5 -25.52)"/><path class="cls-2" d="M299,62.75a23.81,23.81,0,0,1,1.4-8.54A18.9,18.9,0,0,1,304,48.13a14.72,14.72,0,0,1,5.19-3.64,15.81,15.81,0,0,1,6-1.18q6.84,0,10.91,4.46t4.07,13.75c0,.39,0,.77,0,1.15s-.06.75-.11,1.08H303.92q.21,6.84,3.38,10.52t10.08,3.67a20.41,20.41,0,0,0,6.05-.72A24.25,24.25,0,0,0,326.67,76l.86,4a18.42,18.42,0,0,1-3.78,1.37,23.75,23.75,0,0,1-6.51.8,21.93,21.93,0,0,1-8.36-1.44,14.88,14.88,0,0,1-5.68-4A15.92,15.92,0,0,1,300,70.56,28.34,28.34,0,0,1,299,62.75Zm26.42-3c-.1-3.88-1-6.91-2.73-9.07a8.88,8.88,0,0,0-7.35-3.24,9.81,9.81,0,0,0-4.5,1,11.3,11.3,0,0,0-3.45,2.7A12.5,12.5,0,0,0,305,55.11a16.32,16.32,0,0,0-1,4.68Z" transform="translate(-28.5 -25.52)"/><path class="cls-2" d="M342.74,46.4a16.8,16.8,0,0,1,3.92-2,17.79,17.79,0,0,1,6.37-1,17,17,0,0,1,7.17,1.44,14.84,14.84,0,0,1,5.29,4A18,18,0,0,1,368.77,55a26.25,26.25,0,0,1,1.11,7.82A23.26,23.26,0,0,1,368.55,71a17.65,17.65,0,0,1-3.74,6.12,16.19,16.19,0,0,1-5.76,3.86,20.22,20.22,0,0,1-7.46,1.33,43.07,43.07,0,0,1-8.2-.65,41.67,41.67,0,0,1-5.33-1.37V26.39l4.68-.87Zm0,30.6a20.89,20.89,0,0,0,3.2.69,39.55,39.55,0,0,0,5.58.32,12.68,12.68,0,0,0,9.72-3.93q3.67-3.92,3.67-11.26a25.82,25.82,0,0,0-.64-5.87,13.93,13.93,0,0,0-2.09-4.83,10.54,10.54,0,0,0-3.78-3.27,12.35,12.35,0,0,0-5.8-1.23,14.88,14.88,0,0,0-3.17.33,17.31,17.31,0,0,0-2.8.83,15.51,15.51,0,0,0-3.89,2.16Z" transform="translate(-28.5 -25.52)"/><path class="cls-3" d="M142.81,105.77V89.83h9.09v1.36h-7.52V96.8h6.67v1.36h-6.67v7.61Z" transform="translate(-28.5 -25.52)"/><path class="cls-3" d="M164.57,99.84a7.62,7.62,0,0,1-.41,2.55,5.78,5.78,0,0,1-1.12,2A5.4,5.4,0,0,1,157,105.6a5,5,0,0,1-1.71-1.25,5.8,5.8,0,0,1-1.13-2,8.33,8.33,0,0,1,0-5.1,5.85,5.85,0,0,1,1.13-2A4.94,4.94,0,0,1,157,94.06a5.53,5.53,0,0,1,4.37,0A5.07,5.07,0,0,1,163,95.32a5.83,5.83,0,0,1,1.12,2A7.58,7.58,0,0,1,164.57,99.84Zm-1.59,0a5.6,5.6,0,0,0-1-3.55,3.62,3.62,0,0,0-5.61,0,6.62,6.62,0,0,0,0,7.09,3.66,3.66,0,0,0,5.61,0A5.55,5.55,0,0,0,163,99.84Z" transform="translate(-28.5 -25.52)"/><path class="cls-3" d="M177.86,99.84a7.62,7.62,0,0,1-.4,2.55,5.8,5.8,0,0,1-1.13,2,5,5,0,0,1-1.71,1.25,5.23,5.23,0,0,1-2.19.45,5.16,5.16,0,0,1-3.9-1.7,5.62,5.62,0,0,1-1.12-2,8.13,8.13,0,0,1,0-5.1,5.67,5.67,0,0,1,1.12-2,5.07,5.07,0,0,1,1.72-1.26,5.15,5.15,0,0,1,2.18-.45,5.23,5.23,0,0,1,2.19.45,4.94,4.94,0,0,1,1.71,1.26,5.85,5.85,0,0,1,1.13,2A7.58,7.58,0,0,1,177.86,99.84Zm-1.59,0a5.59,5.59,0,0,0-1-3.55,3.62,3.62,0,0,0-5.61,0,6.56,6.56,0,0,0,0,7.09,3.66,3.66,0,0,0,5.61,0A5.54,5.54,0,0,0,176.27,99.84Z" transform="translate(-28.5 -25.52)"/><path class="cls-3" d="M190.46,105.41a14.3,14.3,0,0,1-1.7.43,13.51,13.51,0,0,1-2.62.21,6.27,6.27,0,0,1-2.38-.43,5,5,0,0,1-1.84-1.23,5.49,5.49,0,0,1-1.2-2,7.54,7.54,0,0,1-.42-2.6,8.63,8.63,0,0,1,.35-2.5,5.77,5.77,0,0,1,1-2,4.79,4.79,0,0,1,1.69-1.29,5.38,5.38,0,0,1,2.29-.46,5.65,5.65,0,0,1,2,.33,5.52,5.52,0,0,1,1.26.64V88.2l1.49-.27ZM189,96.05a4.23,4.23,0,0,0-.52-.35,6.06,6.06,0,0,0-.72-.35,7.33,7.33,0,0,0-.9-.26,4.74,4.74,0,0,0-1-.1,3.93,3.93,0,0,0-1.85.39,3.32,3.32,0,0,0-1.21,1,4.45,4.45,0,0,0-.67,1.55,8.06,8.06,0,0,0-.21,1.87,5.06,5.06,0,0,0,1.18,3.6,4.05,4.05,0,0,0,3.1,1.25,12.14,12.14,0,0,0,1.78-.1,6.25,6.25,0,0,0,1-.22Z" transform="translate(-28.5 -25.52)"/><path class="cls-3" d="M203.18,104.76a5.21,5.21,0,0,0,2.9-.68,2.43,2.43,0,0,0,1-2.2,3,3,0,0,0-.33-1.46,3,3,0,0,0-.88-1,5.69,5.69,0,0,0-1.27-.69l-1.49-.61c-.66-.26-1.25-.53-1.78-.8A5.82,5.82,0,0,1,200,96.4a3.46,3.46,0,0,1-.84-1.18,4,4,0,0,1-.29-1.57,3.7,3.7,0,0,1,1.36-3.1A6,6,0,0,1,204,89.49a8.93,8.93,0,0,1,1.27.09,9.49,9.49,0,0,1,1.16.24,7.63,7.63,0,0,1,1,.34,3.72,3.72,0,0,1,.75.39l-.56,1.31a5.52,5.52,0,0,0-1.62-.74,7.49,7.49,0,0,0-2.06-.27,6,6,0,0,0-1.39.15,3.09,3.09,0,0,0-1.09.48,2.25,2.25,0,0,0-.72.84,2.56,2.56,0,0,0-.27,1.22,2.5,2.5,0,0,0,.28,1.24,2.55,2.55,0,0,0,.77.87,5.8,5.8,0,0,0,1.16.67c.44.2.93.41,1.45.62s1.22.52,1.78.78a6.38,6.38,0,0,1,1.46.92,4,4,0,0,1,1,1.29,4.21,4.21,0,0,1,.37,1.87,3.71,3.71,0,0,1-1.51,3.24,6.86,6.86,0,0,1-4.08,1.08,10.88,10.88,0,0,1-1.68-.12,10.45,10.45,0,0,1-1.36-.28,9.46,9.46,0,0,1-1-.36,6.26,6.26,0,0,1-.64-.32l.5-1.36c.16.09.36.2.62.32a7.71,7.71,0,0,0,.92.36,10.58,10.58,0,0,0,1.2.29A9.37,9.37,0,0,0,203.18,104.76Z" transform="translate(-28.5 -25.52)"/><path class="cls-3" d="M221.88,99.84a7.62,7.62,0,0,1-.4,2.55,5.64,5.64,0,0,1-1.13,2,5,5,0,0,1-1.71,1.25,5.53,5.53,0,0,1-4.37,0,5,5,0,0,1-1.71-1.25,5.64,5.64,0,0,1-1.13-2,8.33,8.33,0,0,1,0-5.1,5.68,5.68,0,0,1,1.13-2,4.94,4.94,0,0,1,1.71-1.26,5.53,5.53,0,0,1,4.37,0,4.94,4.94,0,0,1,1.71,1.26,5.68,5.68,0,0,1,1.13,2A7.58,7.58,0,0,1,221.88,99.84Zm-1.58,0a5.6,5.6,0,0,0-1-3.55,3.62,3.62,0,0,0-5.61,0,6.56,6.56,0,0,0,0,7.09,3.66,3.66,0,0,0,5.61,0A5.55,5.55,0,0,0,220.3,99.84Z" transform="translate(-28.5 -25.52)"/><path class="cls-3" d="M229.34,87.93a6.81,6.81,0,0,1,1.58.15,3,3,0,0,1,.79.26l-.3,1.29a3.76,3.76,0,0,0-.74-.24,4.92,4.92,0,0,0-1.26-.13,2.83,2.83,0,0,0-2.26.8,4,4,0,0,0-.68,2.58v1.24h4.78v1.27h-4.78v10.62H225V92.6A5.05,5.05,0,0,1,226,89.1,4.28,4.28,0,0,1,229.34,87.93Z" transform="translate(-28.5 -25.52)"/><path class="cls-3" d="M235.07,93.88h4.74v1.27h-4.74v6.32a6.68,6.68,0,0,0,.17,1.65,2.38,2.38,0,0,0,.5,1,1.63,1.63,0,0,0,.78.46,4.53,4.53,0,0,0,1,.11,4.25,4.25,0,0,0,1.52-.22,6.84,6.84,0,0,0,.9-.4l.36,1.24a5,5,0,0,1-1.12.47,5.49,5.49,0,0,1-1.75.27,5.2,5.2,0,0,1-1.85-.29,2.67,2.67,0,0,1-1.2-.87,3.59,3.59,0,0,1-.63-1.47,10.35,10.35,0,0,1-.18-2.07V90.39l1.49-.28Z" transform="translate(-28.5 -25.52)"/><path class="cls-3" d="M250.77,93.88c.14.77.32,1.59.54,2.45s.46,1.75.73,2.65.55,1.78.85,2.65.6,1.7.91,2.47c.26-.59.54-1.3.83-2.13s.59-1.72.88-2.64.56-1.87.82-2.81.46-1.82.63-2.64h1.48c-.56,2.34-1.16,4.47-1.82,6.4s-1.37,3.76-2.15,5.49h-1.39c-.23-.54-.48-1.14-.73-1.81s-.52-1.38-.79-2.14-.53-1.55-.78-2.38-.5-1.69-.73-2.57c-.23.88-.47,1.73-.72,2.57s-.51,1.64-.78,2.39-.53,1.48-.78,2.14-.5,1.27-.73,1.8H245.6q-1.17-2.59-2.15-5.49c-.65-1.93-1.25-4.07-1.8-6.4h1.58c.17.82.38,1.69.64,2.64s.52,1.87.82,2.8.59,1.81.89,2.63.58,1.54.84,2.12c.29-.76.59-1.58.88-2.46s.57-1.75.83-2.64.51-1.77.73-2.64.44-1.68.62-2.45Z" transform="translate(-28.5 -25.52)"/><path class="cls-3" d="M264.24,93.61a5.35,5.35,0,0,1,2,.33,3.44,3.44,0,0,1,1.32.92,3.72,3.72,0,0,1,.74,1.39,6.5,6.5,0,0,1,.23,1.75v7.5l-.67.15-1,.17c-.39.06-.81.11-1.28.15s-.95.06-1.44.06a6.72,6.72,0,0,1-1.73-.21,3.85,3.85,0,0,1-1.38-.66,3,3,0,0,1-.92-1.15,3.8,3.8,0,0,1-.34-1.71,3.57,3.57,0,0,1,.37-1.66,3.21,3.21,0,0,1,1-1.13,4.62,4.62,0,0,1,1.58-.66,9,9,0,0,1,2-.21c.22,0,.45,0,.68,0s.47,0,.69.09l.58.12a1.31,1.31,0,0,1,.33.1v-.74a7.88,7.88,0,0,0-.09-1.2,2.66,2.66,0,0,0-.4-1.06,2.19,2.19,0,0,0-.88-.76,3.27,3.27,0,0,0-1.48-.29,7.76,7.76,0,0,0-1.95.18l-1,.3-.21-1.31a6.24,6.24,0,0,1,1.21-.34A10.18,10.18,0,0,1,264.24,93.61Zm.14,11.08c.58,0,1.09,0,1.53,0a11.16,11.16,0,0,0,1.11-.15V100.3a4.16,4.16,0,0,0-.8-.24,6.79,6.79,0,0,0-1.52-.13,9.27,9.27,0,0,0-1.15.08,3.43,3.43,0,0,0-1.11.35,2.19,2.19,0,0,0-.82.72,2.07,2.07,0,0,0-.33,1.22,2.71,2.71,0,0,0,.22,1.13,1.92,1.92,0,0,0,.62.73,2.76,2.76,0,0,0,1,.41A6.19,6.19,0,0,0,264.38,104.69Z" transform="translate(-28.5 -25.52)"/><path class="cls-3" d="M276.19,93.65a7.66,7.66,0,0,1,1.39.12,4.26,4.26,0,0,1,.91.23l-.3,1.29a3.34,3.34,0,0,0-.74-.2A8.55,8.55,0,0,0,276,95a7.22,7.22,0,0,0-1.55.13,5.18,5.18,0,0,0-.77.23v10.42h-1.5V94.44a10.58,10.58,0,0,1,1.59-.52A9.73,9.73,0,0,1,276.19,93.65Z" transform="translate(-28.5 -25.52)"/><path class="cls-3" d="M279.69,99.82a7.55,7.55,0,0,1,.45-2.73,5.93,5.93,0,0,1,1.18-1.94A4.55,4.55,0,0,1,283,94a4.91,4.91,0,0,1,1.92-.38A4.49,4.49,0,0,1,288.38,95a6.41,6.41,0,0,1,1.3,4.4c0,.12,0,.24,0,.36s0,.24,0,.35h-8.35a5.3,5.3,0,0,0,1.08,3.36,4.05,4.05,0,0,0,3.22,1.17,6.59,6.59,0,0,0,1.93-.23,7.42,7.42,0,0,0,1-.39l.28,1.29a6.85,6.85,0,0,1-1.21.43,7.58,7.58,0,0,1-2.08.26,7,7,0,0,1-2.67-.46,4.85,4.85,0,0,1-1.82-1.29,5.09,5.09,0,0,1-1-2A8.93,8.93,0,0,1,279.69,99.82Zm8.45-.95a4.78,4.78,0,0,0-.88-2.89,2.82,2.82,0,0,0-2.34-1,3.18,3.18,0,0,0-1.44.32,3.81,3.81,0,0,0-1.84,2.12,5,5,0,0,0-.31,1.49Z" transform="translate(-28.5 -25.52)"/><path class="cls-3" d="M301.77,104.76a5.18,5.18,0,0,0,2.9-.68,2.44,2.44,0,0,0,1-2.2,2.84,2.84,0,0,0-.34-1.46,2.89,2.89,0,0,0-.88-1,5.69,5.69,0,0,0-1.27-.69l-1.49-.61a18.8,18.8,0,0,1-1.77-.8,5.88,5.88,0,0,1-1.34-.93,3.6,3.6,0,0,1-.84-1.18,4,4,0,0,1-.28-1.57,3.7,3.7,0,0,1,1.35-3.1,6,6,0,0,1,3.77-1.06,8.83,8.83,0,0,1,1.27.09,9.49,9.49,0,0,1,1.16.24,7.63,7.63,0,0,1,1,.34,3.72,3.72,0,0,1,.75.39l-.55,1.31a5.71,5.71,0,0,0-1.63-.74,7.47,7.47,0,0,0-2.05-.27,6.13,6.13,0,0,0-1.4.15,3.09,3.09,0,0,0-1.09.48,2.34,2.34,0,0,0-.72.84,2.56,2.56,0,0,0-.27,1.22,2.61,2.61,0,0,0,.28,1.24,2.55,2.55,0,0,0,.77.87,6.09,6.09,0,0,0,1.16.67c.45.2.93.41,1.45.62s1.22.52,1.78.78a6.38,6.38,0,0,1,1.46.92,3.91,3.91,0,0,1,1,1.29,4.21,4.21,0,0,1,.37,1.87,3.71,3.71,0,0,1-1.51,3.24,6.86,6.86,0,0,1-4.08,1.08,10.88,10.88,0,0,1-1.68-.12,10.28,10.28,0,0,1-1.35-.28,9.71,9.71,0,0,1-1-.36,6.26,6.26,0,0,1-.64-.32l.5-1.36c.16.09.37.2.63.32a7.09,7.09,0,0,0,.92.36,9.9,9.9,0,0,0,1.19.29A9.56,9.56,0,0,0,301.77,104.76Z" transform="translate(-28.5 -25.52)"/><path class="cls-3" d="M311.58,110h-1.49V94.3a12.42,12.42,0,0,1,1.7-.44,13.51,13.51,0,0,1,2.62-.21,6.23,6.23,0,0,1,2.38.43,5,5,0,0,1,1.84,1.23,5.52,5.52,0,0,1,1.2,2,7.58,7.58,0,0,1,.42,2.6,8.26,8.26,0,0,1-.35,2.5,5.54,5.54,0,0,1-1,2,4.77,4.77,0,0,1-1.69,1.28,5.38,5.38,0,0,1-2.29.46,5.65,5.65,0,0,1-2-.33,5.52,5.52,0,0,1-1.26-.64Zm0-6.39a5.93,5.93,0,0,0,.52.34,4.53,4.53,0,0,0,.73.34,5.47,5.47,0,0,0,.89.27,4.74,4.74,0,0,0,1,.1,4,4,0,0,0,1.86-.38,3.16,3.16,0,0,0,1.2-1,4.39,4.39,0,0,0,.67-1.54,8.14,8.14,0,0,0,.21-1.88,5.06,5.06,0,0,0-1.18-3.6,4.05,4.05,0,0,0-3.1-1.25,12.14,12.14,0,0,0-1.78.1,7.51,7.51,0,0,0-1,.22Z" transform="translate(-28.5 -25.52)"/><path class="cls-3" d="M322.69,99.82a7.55,7.55,0,0,1,.45-2.73,6.08,6.08,0,0,1,1.17-1.94A4.68,4.68,0,0,1,326,94a4.91,4.91,0,0,1,1.92-.38A4.46,4.46,0,0,1,331.37,95a6.36,6.36,0,0,1,1.3,4.4c0,.12,0,.24,0,.36s0,.24,0,.35h-8.35a5.3,5.3,0,0,0,1.08,3.36,4,4,0,0,0,3.22,1.17,6.59,6.59,0,0,0,1.93-.23,7.42,7.42,0,0,0,1-.39l.27,1.29a6.37,6.37,0,0,1-1.2.43,7.65,7.65,0,0,1-2.09.26,7,7,0,0,1-2.66-.46,4.78,4.78,0,0,1-1.82-1.29,5.1,5.1,0,0,1-1-2A9.32,9.32,0,0,1,322.69,99.82Zm8.44-.95a4.71,4.71,0,0,0-.87-2.89,2.83,2.83,0,0,0-2.35-1,3.17,3.17,0,0,0-1.43.32,3.76,3.76,0,0,0-1.11.87,3.88,3.88,0,0,0-.73,1.25,5,5,0,0,0-.31,1.49Z" transform="translate(-28.5 -25.52)"/><path class="cls-3" d="M340.8,106a6.4,6.4,0,0,1-2.44-.44,4.67,4.67,0,0,1-1.76-1.25,5.88,5.88,0,0,1-1.07-2,8.34,8.34,0,0,1-.36-2.52,7.94,7.94,0,0,1,.38-2.55,5.59,5.59,0,0,1,1.09-2,4.71,4.71,0,0,1,1.72-1.27,5.59,5.59,0,0,1,2.28-.45,9.45,9.45,0,0,1,1.81.16,4.63,4.63,0,0,1,1.3.41l-.4,1.29a4.79,4.79,0,0,0-1-.37,7,7,0,0,0-1.54-.14,3.62,3.62,0,0,0-3,1.28,5.67,5.67,0,0,0-1,3.62,7.9,7.9,0,0,0,.23,2,4,4,0,0,0,.75,1.51,3.4,3.4,0,0,0,1.33,1,5,5,0,0,0,2,.36,5.07,5.07,0,0,0,1.62-.22,5.91,5.91,0,0,0,.95-.38l.32,1.29a5.88,5.88,0,0,1-1.3.45A7.94,7.94,0,0,1,340.8,106Z" transform="translate(-28.5 -25.52)"/><path class="cls-3" d="M348.22,90.3a1.1,1.1,0,0,1-.32.83,1.15,1.15,0,0,1-1.57,0,1.15,1.15,0,1,1,1.89-.83Zm-.35,15.47h-1.49V93.88h1.49Z" transform="translate(-28.5 -25.52)"/><path class="cls-3" d="M355.09,93.61a5.31,5.31,0,0,1,2,.33,3.44,3.44,0,0,1,1.32.92,3.72,3.72,0,0,1,.74,1.39,6.5,6.5,0,0,1,.23,1.75v7.5l-.67.15-1,.17c-.38.06-.81.11-1.28.15s-.94.06-1.43.06a6.8,6.8,0,0,1-1.74-.21,3.85,3.85,0,0,1-1.38-.66,3,3,0,0,1-.92-1.15,3.94,3.94,0,0,1-.34-1.71,3.57,3.57,0,0,1,.37-1.66,3.21,3.21,0,0,1,1-1.13,4.59,4.59,0,0,1,1.59-.66,9,9,0,0,1,2-.21c.21,0,.44,0,.67,0s.47,0,.7.09l.57.12a1.31,1.31,0,0,1,.33.1v-.74a7.88,7.88,0,0,0-.09-1.2,2.52,2.52,0,0,0-.4-1.06,2.23,2.23,0,0,0-.87-.76,3.35,3.35,0,0,0-1.49-.29,7.81,7.81,0,0,0-1.95.18l-.95.3-.2-1.31a5.89,5.89,0,0,1,1.2-.34A10.18,10.18,0,0,1,355.09,93.61Zm.14,11.08c.58,0,1.09,0,1.53,0a11.16,11.16,0,0,0,1.11-.15V100.3a3.94,3.94,0,0,0-.8-.24,6.79,6.79,0,0,0-1.52-.13,9.27,9.27,0,0,0-1.15.08,3.3,3.3,0,0,0-1.1.35,2.14,2.14,0,0,0-.83.72,2.07,2.07,0,0,0-.32,1.22,2.71,2.71,0,0,0,.21,1.13,1.86,1.86,0,0,0,.63.73,2.71,2.71,0,0,0,1,.41A6.19,6.19,0,0,0,355.23,104.69Z" transform="translate(-28.5 -25.52)"/><path class="cls-3" d="M366,106a5.11,5.11,0,0,1-1.32-.19,2.46,2.46,0,0,1-.94-.53,2.23,2.23,0,0,1-.58-.92,4.43,4.43,0,0,1-.19-1.42V88.2l1.49-.27v14.95a3,3,0,0,0,.11.88,1.12,1.12,0,0,0,.31.53,1.16,1.16,0,0,0,.54.29,7.78,7.78,0,0,0,.79.16Z" transform="translate(-28.5 -25.52)"/><path class="cls-3" d="M370.54,90.3a1.08,1.08,0,0,1-1.11,1.14,1.09,1.09,0,0,1-.78-.31,1.15,1.15,0,1,1,1.89-.83Zm-.35,15.47H368.7V93.88h1.49Z" transform="translate(-28.5 -25.52)"/><path class="cls-3" d="M376.33,104.72a4.75,4.75,0,0,0,2.13-.43,1.48,1.48,0,0,0,.84-1.44,2.12,2.12,0,0,0-.15-.83,1.78,1.78,0,0,0-.5-.62,4.38,4.38,0,0,0-.91-.53l-1.39-.59c-.44-.19-.87-.37-1.26-.57a5.29,5.29,0,0,1-1.06-.66,3.09,3.09,0,0,1-.74-.91,2.8,2.8,0,0,1-.27-1.29,2.89,2.89,0,0,1,1.09-2.35,4.64,4.64,0,0,1,3-.89,8.6,8.6,0,0,1,2,.2,6.51,6.51,0,0,1,1.12.37l-.35,1.34a6.48,6.48,0,0,0-.93-.37,6,6,0,0,0-1.92-.23,4.13,4.13,0,0,0-1,.1,2.73,2.73,0,0,0-.8.32,1.73,1.73,0,0,0-.55.56,1.49,1.49,0,0,0-.21.82,1.69,1.69,0,0,0,.73,1.44,5,5,0,0,0,.87.49l1.19.5c.46.19.9.37,1.32.57a5.39,5.39,0,0,1,1.12.68,3.21,3.21,0,0,1,.78,1,3,3,0,0,1,.3,1.41,2.77,2.77,0,0,1-1.21,2.44,5.8,5.8,0,0,1-3.3.83,8.54,8.54,0,0,1-2.39-.26,8.3,8.3,0,0,1-1.11-.41l.39-1.35.3.15.62.23a7.26,7.26,0,0,0,.93.21A6.77,6.77,0,0,0,376.33,104.72Z" transform="translate(-28.5 -25.52)"/><path class="cls-3" d="M384.9,93.88h4.74v1.27H384.9v6.32a6.18,6.18,0,0,0,.18,1.65,2.26,2.26,0,0,0,.49,1,1.67,1.67,0,0,0,.78.46,4.6,4.6,0,0,0,1,.11,4.25,4.25,0,0,0,1.52-.22,6.28,6.28,0,0,0,.9-.4l.37,1.24a5.08,5.08,0,0,1-1.13.47,5.49,5.49,0,0,1-1.75.27,5.24,5.24,0,0,1-1.85-.29,2.67,2.67,0,0,1-1.2-.87,3.72,3.72,0,0,1-.63-1.47,10.35,10.35,0,0,1-.18-2.07V90.39l1.49-.28Z" transform="translate(-28.5 -25.52)"/><path class="cls-3" d="M395.44,104.72a4.73,4.73,0,0,0,2.12-.43,1.48,1.48,0,0,0,.84-1.44,2.12,2.12,0,0,0-.15-.83,1.74,1.74,0,0,0-.49-.62,4.38,4.38,0,0,0-.91-.53l-1.39-.59c-.45-.19-.87-.37-1.27-.57a5.21,5.21,0,0,1-1.05-.66,2.94,2.94,0,0,1-.74-.91,2.8,2.8,0,0,1-.28-1.29,2.9,2.9,0,0,1,1.1-2.35,4.61,4.61,0,0,1,3-.89,8.6,8.6,0,0,1,2,.2,6.51,6.51,0,0,1,1.12.37L399,95.52a6.48,6.48,0,0,0-.93-.37,6,6,0,0,0-1.92-.23,4.22,4.22,0,0,0-1,.1,2.79,2.79,0,0,0-.79.32,1.73,1.73,0,0,0-.55.56,1.49,1.49,0,0,0-.21.82,1.7,1.7,0,0,0,.19.83,1.82,1.82,0,0,0,.54.61,4.65,4.65,0,0,0,.87.49l1.19.5c.46.19.9.37,1.32.57a5.06,5.06,0,0,1,1.11.68,2.93,2.93,0,0,1,.78,1,3,3,0,0,1,.3,1.41,2.77,2.77,0,0,1-1.2,2.44,5.8,5.8,0,0,1-3.3.83,8.62,8.62,0,0,1-2.4-.26,8,8,0,0,1-1.1-.41l.39-1.35.3.15.62.23a7.26,7.26,0,0,0,.93.21A6.7,6.7,0,0,0,395.44,104.72Z" transform="translate(-28.5 -25.52)"/><path class="cls-4" d="M125.18,94.52a10,10,0,0,0-12.43-6.88,9.45,9.45,0,0,0-4.89,3.52L92.08,82.64a16.51,16.51,0,0,0-3.46-17.83l8.93-10.76a8.85,8.85,0,0,0,6.9.68,8.95,8.95,0,1,0-11.19-5.89,9.08,9.08,0,0,0,1.59,3L85.93,62.56a16.51,16.51,0,0,0-14.08-2c-.46.14-.91.32-1.35.49L64.29,49.48a12.86,12.86,0,1,0-3.8,2c.25-.08.49-.18.73-.27l6.19,11.51a16.6,16.6,0,0,0-6.88,17L50.4,82.83a11.56,11.56,0,1,0,1.05,3.34L61.58,83a16.56,16.56,0,0,0,12.74,9.75l-.43,10.39a8.22,8.22,0,0,0-1.07.24,8.38,8.38,0,1,0,4.57-.1l.43-10.38a16.79,16.79,0,0,0,3.85-.7,16.52,16.52,0,0,0,8.74-6.46l15.91,8.6a10.51,10.51,0,0,0,.07,6,9.84,9.84,0,1,0,18.79-5.82Z" transform="translate(-28.5 -25.52)"/></svg>
